{"title":"At the Earths Core (1976) ","uid":5854898,"size":734379010,"categoryP":"video","categoryS":"movies","magnet":"?xt=urn:btih:f07a6d8b3281f3384de1342d49d3f39e542b7efa&amp;dn=At+the+Earths+Core+%281976%29+&amp;tr=udp%3A%2F%2Ftracker.openbittorrent.com%3A80&amp;tr=udp%3A%2F%2Fopen.demonii.com%3A1337&amp;tr=udp%3A%2F%2Ftracker.coppersurfer.tk%3A6969&amp;tr=udp%3A%2F%2Fexodus.desync.com%3A6969","seeders":5,"leechers":2,"uploader":".BONE.","files":8,"time":1285565156,"description":"A Victorian era scientist and his assistant take a test run in their Iron Mole drilling machine and end up in a strange underground labyrinth ruled by a species of giant telepathic bird and full of prehistoric monsters and cavemen.\n\nVideo\nID : 0\nFormat : MPEG-4 Visual\nFormat profile : Advanced Simple@L5\nFormat settings, BVOP : Yes\nFormat settings, QPel : No\nFormat settings, GMC : No warppoints\nFormat settings, Matrix : Custom\nCodec ID : XVID\nCodec ID/Hint : XviD\nDuration : 1h 26mn\nBit rate : 992 Kbps\nWidth : 608 pixels\nHeight : 384 pixels\nDisplay aspect ratio : 1.583\nFrame rate : 25.000 fps\nColor space : YUV\nChroma subsampling : 4:2:0\nBit depth : 8 bits\nScan type : Progressive\nBits/(Pixel*Frame) : 0.170\nStream size : 616 MiB (88%)\nWriting library : XviD 1.2.1 (UTC 2008-12-04)\n\nAudio\nID : 1\nFormat : MPEG Audio\nFormat version : Version 1\nFormat profile : Layer 3\nMode : Joint stereo\nMode extension : MS Stereo\nCodec ID : 55\nCodec ID/Hint : MP3\nDuration : 1h 26mn\nBit rate mode : Constant\nBit rate : 128 Kbps\nChannel(s) : 2 channels\nSampling rate : 48.0 KHz\nStream size : 79.5 MiB (11%)\nAlignment : Aligned on interleaves\nInterleave, duration : 80 ms (2.00 video frames)\nInterleave, preload duration : 504 ms\nWriting library : LAME3.98r\nEncoding settings : -m j -V 4 -q 2 -lowpass 17 -b 128\nLanguage : English\n &lt;a href=&quot;\nhttp://www.imdb.com/title/tt0074157/&quot; rel=&quot;nofollow&quot; target=&quot;_NEW&quot;&gt;\nhttp://www.imdb.com/title/tt0074157/&lt;/a&gt;","torrent":{"xt":"urn:btih:f07a6d8b3281f3384de1342d49d3f39e542b7efa","amp;dn":"At+the+Earths+Core+%281976%29+","amp;tr":["udp%3A%2F%2Ftracker.openbittorrent.com%3A80","udp%3A%2F%2Fopen.demonii.com%3A1337","udp%3A%2F%2Ftracker.coppersurfer.tk%3A6969","udp%3A%2F%2Fexodus.desync.com%3A6969"],"infoHash":"f07a6d8b3281f3384de1342d49d3f39e542b7efa","infoHashBuffer":{"type":"Buffer","data":[240,122,109,139,50,129,243,56,77,225,52,45,73,211,243,158,84,43,126,250]},"announce":[],"urlList":[]}}